<svg width="512" height="512" viewBox="0 0 512 512" fill="none" xmlns="http://www.w3.org/2000/svg">
<path d="M467.201 97.6C467.201 87.04 460.161 80 449.601 80H62.4008C51.8408 80 44.8008 87.04 44.8008 97.6V132.8C44.8008 143.36 51.8408 150.4 62.4008 150.4H449.601C460.161 150.4 467.201 143.36 467.201 132.8V97.6Z" fill="white"/>
<path d="M467.201 238.4C467.201 227.84 460.161 220.8 449.601 220.8H62.4008C51.8408 220.8 44.8008 227.84 44.8008 238.4V273.6C44.8008 284.16 51.8408 291.2 62.4008 291.2H449.601C460.161 291.2 467.201 284.16 467.201 273.6V238.4Z" fill="white"/>
<path d="M467.201 379.2C467.201 368.64 460.161 361.6 449.601 361.6H62.4008C51.8408 361.6 44.8008 368.64 44.8008 379.2V414.4C44.8008 424.96 51.8408 432 62.4008 432H449.601C460.161 432 467.201 424.96 467.201 414.4V379.2Z" fill="white"/>
</svg>
