<svg width="512" height="512" viewBox="0 0 512 512" fill="none" xmlns="http://www.w3.org/2000/svg">
<path d="M393.052 390.889C369.919 372.43 355.487 360.138 334.832 341.012C328.755 335.385 321.328 331.88 313.702 331.88C307.865 331.88 302.102 333.739 297.357 337.631C292.46 341.752 287.563 345.872 282.664 349.991C242.861 302.707 213.304 247.608 195.929 188.302C202.072 186.505 208.216 184.707 214.358 182.91C227.896 178.767 234.265 164.321 232.278 149.839C227.956 118.319 225.608 102.659 222.933 73.7651C221.562 58.9546 211.701 46.0893 197.568 45.3201C195.363 45.1061 193.161 45 190.976 45C138.415 45 92.6514 105.897 109.58 180.397C130.645 272.659 176.248 357.669 241.47 426.263C268.188 454.303 300.918 467 330.478 467C361.663 467 389.321 452.881 402.717 427.75C409.898 415.557 404.683 400.17 393.052 390.889Z" fill="white"/>
</svg>
