<svg width="535" height="203" viewBox="0 0 535 203" fill="none" xmlns="http://www.w3.org/2000/svg">
<path fill-rule="evenodd" clip-rule="evenodd" d="M123.3 149.4C125.3 147.8 128.1 145.2 130.8 144.6C132.82 144.234 134.892 144.268 136.9 144.7C138.842 145.197 140.747 145.832 142.6 146.6C144.6 147.3 147 147.9 148.2 148.2C148.987 148.403 149.813 148.403 150.6 148.2L155.9 146.9C161 145.5 165.8 143.8 171.3 144.2C176.8 144.6 184.5 149.1 192.7 147.6C195.1 147.2 197.1 146.2 199.4 146C204.1 145.7 209.3 148.8 213.9 149.2C218.5 149.6 223.5 146.5 227.4 145.6C234.2 144.1 238.1 150.4 245.3 148.8C248.9 148 250.7 146.4 256.4 145.6C267.5 144 274.3 149.2 278.9 149.5C286 150 288 142.1 303.8 146.5C310.9 148.5 312.3 149.6 319.3 146.7C328 143.1 331.2 139.9 339.9 145.1C343.7 147.4 346.6 150.6 351.1 153.3C355.771 156.181 361.038 157.96 366.5 158.5C372.493 158.94 378.482 157.582 383.7 154.6C390.7 150.7 391.5 146.8 400.2 144.2C406.1 142.6 408.3 144.3 414.3 146.3C422 149 426.9 148.6 434.5 146C442.1 143.4 442 143.2 448 146.7C449.2 147.5 449.4 147.4 450.9 147.1C453.088 146.55 455.349 146.347 457.6 146.5C460.1 146.7 462.4 147.8 464.9 148.3C467.079 148.872 469.381 148.768 471.5 148C475.3 146.3 474.8 141.5 476.8 138.7C480.5 133.6 489.6 135.3 494.8 127.7C496.4 125.5 497.4 122.5 498.4 118.9C501.1 108.1 498.7 104.4 490.7 95.9C490.9 95.3 492.1 94.5 492.9 94.1C493.208 93.9015 493.56 93.7798 493.925 93.745C494.291 93.7102 494.659 93.7634 495 93.9C496.5 94.5 499 96.2 500.5 96.1C502 96 501.7 95.7 501.1 95.1C500.044 94.177 498.822 93.4642 497.5 93C496.1 92.5 495.2 92.5 495.1 92.1C495 91.7 497.7 89.5 499.9 90.1C500.583 90.4373 501.284 90.7378 502 91C503 90.8 501.3 87.1 497.6 88.4C495.6 89.1 492.9 91.4 492 91.6C491.1 91.8 491.9 89.8 492.7 87.8C493.353 86.0717 493.887 84.3009 494.3 82.5C494.5 81.4 494.3 81.2 493.7 82.4C492.767 84.357 491.932 86.3595 491.2 88.4C489.1 94 489.7 90.8 488.7 86.8C488.4 85.4 487.9 85.2 487.9 85.9C487.9 86.6 489.6 92.9 487.2 93.4C487 93.5 481.1 89.5 475.1 87.9C476.7 86.3 475.7 85 475.6 82.8C475.651 81.1188 475.852 79.4456 476.2 77.8C476.3 77 476.6 76.5 476.6 76.1C476.6 75.7 478.8 72.7 479.1 71.2C479.4 69.7 480.5 69.3 480.5 68.3C480.5 67.3 481.9 66 480.3 63.3C479.9 62.8 480.2 63 479.3 61.8C478.4 60.6 478.6 61.2 478.7 59.6C478.8 58 478.2 59.2 478.5 58.6L479.6 56.7C479.7 56.3 477.8 55.2 477.8 54.9C477.8 54.6 475.8 54 474.9 54.2C473.848 54.4508 472.752 54.4508 471.7 54.2C470.5 53.9 471.3 53.2 471.3 53.2L471.5 53.4C471.884 53.4611 472.279 53.4085 472.634 53.2486C472.989 53.0887 473.29 52.8285 473.5 52.5C473.7 52 474.7 52.1 474.5 52C474.3 51.9 473.6 51.8 474.7 51.6C475.8 51.4 473.2 51 472.6 51C472 51 470.8 51.7 470.9 52.6C471 53.5 469.8 53.5 470.8 54.5C471.8 55.5 472.5 55.1 473.8 55.1C475.1 55.1 474.8 54.9 476.2 55C477.6 55.1 476.8 55.8 476 56.3C472.3 58.9 473.2 57.2 471.6 57C471.397 56.9564 471.187 56.9708 470.992 57.0415C470.797 57.1123 470.627 57.2365 470.5 57.4C470.3 57.6 470.4 57.6 466.6 56.1C466 55.9 466.7 56.7 464.6 56.5C459.8 56.1 457.2 54.6 453.8 54.3C452.901 54.2426 451.999 54.2426 451.1 54.3C450.1 54.1 449 53.3 447.3 55.3C446.9 55.7 447.3 55.2 447.2 54.5C447.1 53.8 447 54 447 53.6C447 53.2 448.2 51 448.5 50.4C448.65 50.0437 448.891 49.7333 449.2 49.5C449.3 49.3 449.2 47.2 447.1 48.4C445.982 49.1935 445.086 50.2609 444.5 51.5C443.8 53.1 445.7 53 444.6 54.3L443.7 54.9C441.8 54.1 440.4 53.9 442.3 53.4C442.6 53.3 443.6 53.3 442.9 53.1C442.2 52.9 439.9 53.8 439.1 52.9C438.3 52 437.2 49.5 437 51.1C436.8 52.7 437.5 52.8 437.3 53L436.2 52.7C435.6 52.5 434.7 52.7 434.5 52.3C434.3 51.9 433.9 51 433.7 50.9C433.5 50.8 435.1 50.2 435.9 47.8C436.7 45.4 434.2 44.8 433.8 45.8C433.4 46.8 434 47.5 431.1 49L429.2 50.3C428.6 50.9 428.9 51.6 429 52.3C429.1 53 429.2 52.9 430.3 53.8C431.4 54.7 430.4 54.7 431.7 55.7C433 56.7 432.6 55.9 431.7 55.7L428.5 55.4L423.8 54.5C422.9 54.6 424.8 57.6 425.3 58C425.8 58.4 427.4 58.4 429.1 58.2C429.878 58.2366 430.648 58.0266 431.3 57.6C432.1 57.2 430.3 59.3 430.3 59.3C430.3 59.3 428.5 58.8 428.1 60.8C427.7 62.8 428.2 62.9 426.9 62.8L422.1 62.3C421.7 62.3 421.5 62.3 421.4 62.6C421.199 63.3196 421.199 64.0803 421.4 64.8C421.6 65.3 420 65.6 421.1 68C422.9 72 425 70.8 425.3 71.3C425.6 71.8 424.2 72.8 427 73.5C427.873 73.6204 428.699 73.9649 429.4 74.5C429.787 74.6894 430.209 74.7962 430.639 74.8134C431.07 74.8306 431.499 74.7579 431.9 74.6C437.8 73 434.4 70.5 435.4 68.6C436.4 66.7 438.7 68.1 439.9 68C440.931 67.8954 441.923 67.5531 442.8 67L443.9 65.7C445.7 65.9 444.7 66.3 444.5 66.9C444.401 68.0816 444.537 69.2711 444.9 70.4C445.6 72.3 446.6 74.6 445.5 76.4C444.4 78.2 444.9 77.2 445.9 79.7C446.9 82.2 445.1 82 444.1 83.1C443.599 83.8269 443.164 84.5966 442.8 85.4C442.6 85.6 440.6 85.4 437 84.9L431.4 84.4C429 84.3 425.1 84.3 423.2 83.5C421.3 82.7 422.4 82.2 422.9 81.4C423.4 80.6 425.8 78.9 424.9 78.5C424 78.1 421.4 82.4 421.1 82.6C420.8 82.8 421.4 80 422.2 78.9C423 77.8 424.5 77 424.5 76.8C424.5 76.6 421.8 77.2 420.8 80C419.8 82.8 420.7 81.8 418.6 78.6C418.369 78.1813 418.064 77.8084 417.7 77.5C417.5 77.3 417.4 77.5 417.5 77.8C417.6 78.1 419.6 80.4 418.6 80.2C417.6 80 415 78.2 415.2 78.9C415.4 79.6 418.5 81.2 418.8 83.1C419.1 85 418.4 84.2 417.6 84.2C407.7 84.1 411.7 67.3 410.7 58.2C410 51.8 406.5 40 403.1 33.7C399.7 27.4 393.1 19.2 385.7 15.3C378.3 11.4 371.5 11.1 363.3 13.7C355.1 16.3 349.6 21.2 343.9 28.5C337.656 36.3504 332.602 45.0773 328.9 54.4C326.2 60.7 322.9 69.8 319.3 74.4C315.7 79 311.6 80.4 306.6 81.5C303.8 82.1 298.5 82.5 296.6 81.4C294.7 80.3 296.6 79.4 296.3 77.8C296 76.2 295.5 77.6 295.5 77.5C295.5 77.4 295.5 76.5 296.4 76.5C297.3 76.5 297.3 75.4 296.8 74.9C296.3 74.4 296.4 74 296.1 73.9C295.8 73.8 295.7 74.5 295.5 74.5C295.3 74.5 294.7 73.4 294.2 74.3C293.7 75.2 293.3 75.1 293.9 75.8C294.5 76.5 294.8 76.5 294.8 77C294.8 77.5 293.2 76.4 293.1 77.6C293 78.8 293.6 78.9 293.3 79.6C293 80.3 292 79 292.5 77.5C293 76 293.2 76 292.9 75.7C292.6 75.4 292.3 75.5 292.1 76.4C291.857 77.3465 291.756 78.3238 291.8 79.3C292 80.1 292.3 80.3 290.6 80C288.9 79.7 287.8 79 288.3 76.9C290.7 65.2 291.4 73.2 292.7 72.6C294 72 290.7 69.3 289.4 64.8C288.8 62.6 288.5 59.7 288.1 58.4C287.7 57.1 287.2 57.4 286.3 58C285.4 58.6 281.7 62.3 280.3 62.3C278.9 62.3 279 59.4 277.8 58.9C276.6 58.4 276.7 59.2 275.4 60.1C269.9 64.7 268 64.9 261.8 67.8C260 68.7 260 68.9 260.1 69.1C260.2 69.3 261.8 69 262.5 68.9C263.2 68.8 263.2 69.3 263.5 71C263.8 72.7 264.5 75.8 264.7 77.6C264.9 79.4 264.6 79.8 262.9 79.8C260.253 79.753 257.613 79.5191 255 79.1C253.7 78.9 254 75.9 254.2 75.1C254.4 74.3 254.8 73.9 255.1 74.2C255.4 74.5 255.5 74.9 255.8 75.1C255.917 75.1817 256.057 75.2255 256.2 75.2255C256.343 75.2255 256.482 75.1817 256.6 75.1C256.7 74.9 256.6 74.7 256.9 74.5C257.2 74.3 260.1 73.8 257.4 72.3C256.3 71.6 257.3 71.6 257.4 70.8C257.5 70 255.6 70 255.1 69.7C254.6 69.4 254.6 66.9 253.1 67.1C251.6 67.3 253.4 70.5 252.5 71.8C251.6 73.1 251.3 71.6 250.6 72.4C249.9 73.2 250.5 74.9 251.4 74.8C252.3 74.7 253.2 73.5 253.7 74.1C254.2 74.7 253.2 77.4 252 78.3C251.038 78.9686 249.861 79.2539 248.7 79.1C248.4 78.9 251.2 75.9 248.5 75.7C248.2 75.6 248.1 75.6 248.7 73.2C249.3 70.8 251.5 66 252.4 63.6C253.3 61.2 253.1 61.1 253.3 61C253.5 60.9 255.1 60.7 255 59.4C254.9 58.1 253.3 56.7 252.1 56.1C250.566 55.4694 248.949 55.0652 247.3 54.9C246.8 54.8 247.5 54.3 246.7 53.3L244.6 51.6C244.4 51.5 244.4 51.5 244.5 50.6C244.6 49.7 244.7 46 245.1 45.9C245.5 45.8 246 45.8 246.1 45.1C246.2 44.4 244.4 43.7 245.1 43.4C245.8 43.1 247.9 41.5 248.4 39.5C249.5 35.1 242.2 33.1 240.2 29.6C239.2 27.7 239.6 27.6 238.6 29.3C236.4 33.1 231.4 33.9 229.6 37.8C228.6 40.1 230.1 41.5 232 42.8C233.9 44.1 231.9 43 231.1 43.7C230.866 43.9563 230.728 44.2857 230.71 44.6321C230.692 44.9785 230.794 45.3206 231 45.6C231.218 45.7133 231.399 45.8862 231.523 46.0986C231.647 46.3111 231.708 46.5542 231.7 46.8C231.869 48.0256 231.936 49.2632 231.9 50.5C231.7 52.4 230.9 51.7 229.6 53.5C228.3 55.3 229.4 55.2 225.9 55.8C222.4 56.4 220 59.4 221.3 60.7C222.085 61.4499 222.61 62.4308 222.8 63.5C223.1 64.6 225.9 74.8 225.2 75.1C222.4 76.2 226.1 79 223.9 78.6C221.7 78.2 221.3 77.5 220.2 77.2C219.1 76.9 214.4 78.5 213.9 73.3C213.7 71.4 215.1 74.2 216.5 72.6C217.9 71 215.9 70.7 215.4 70.3C214.9 69.9 216.2 68.8 216 66.8C215.8 64.8 214.6 65.6 214.5 64.7C214.4 63.8 215.1 63.3 213.9 63.3C212.7 63.3 212.5 62.9 211.8 61.8C211.1 60.7 208.4 61.8 208.3 63.1C208.2 64.4 209.3 65.1 208.5 65.9C207.7 66.7 206.5 67.2 206.9 68.7C207.3 70.2 209.1 69.9 209.2 70C209.3 70.1 207.8 70.4 207.7 71.5C207.6 72.6 210.4 74.7 211.5 72.4C211.8 71.7 211.9 70.2 212.5 72.2C213.1 74.2 213.2 75.4 212.5 76.6C211.8 77.8 210.1 78.1 209.1 78.2C206.2 78.5 210.4 75.9 210 75.9C209.6 75.9 208.2 76.6 208.1 76.4C208 76.2 208.6 74.5 208 75.6C207.4 76.7 207.4 77 207.2 74.6C207.2 74 207 74 206.9 74.5C206.8 75 206.8 78.4 206.2 76.9C205.6 75.4 205.5 74.6 205.2 73.8C204.9 73 204.8 73.1 204.9 73.5C205 73.9 206.3 78.3 205.1 76.4C205.1 76.4 202.4 72.3 203.2 74.1C204 75.9 204.8 76.8 203.8 75.9C203.409 75.543 202.971 75.2403 202.5 75C202.5 75.3 205 77.4 204.1 78.1C203.421 78.3291 202.715 78.4637 202 78.5C201.2 78.6 200.3 78.8 200.3 77.2C200.3 75.6 201.1 72.3 201.6 70.6C202.1 68.9 202.6 70.2 204.2 71.6C205.8 73 205.1 71.9 205.3 71.7C205.5 71.5 205.5 71.4 204 68.3L197.7 56C195.3 51.3 196.1 52.5 190.8 50.3C188.3 49.2 188.3 48.8 186.7 53.3C185.1 57.8 183.5 62.7 180.2 67.8C179.2 69.3 179.1 69.2 180.4 69.6C181.7 70 181.3 68.7 182.2 67.3C183.1 65.9 182.7 66.8 183.4 68.8C184.345 71.2517 185.015 73.8006 185.4 76.4C185.4 78.2 184.3 78.1 183.6 78C182.9 77.9 182.3 77.8 182.5 75.7C182.7 73.6 182.5 75 183.5 75.4C184.5 75.8 183.7 75.5 184 74.7C184.3 73.9 182.7 74.4 182.9 74C183.1 73.6 182.4 71.7 182 73.6C181.9 73.9 181.7 73.8 181 73.8C180.3 73.8 180.8 73.5 180.5 73C180.2 72.5 179.4 72.2 179.4 73.6C179.4 75 179 73.9 178.4 74C177.8 74.1 178.2 74 177.7 73.3C177.2 72.6 176.3 73.4 176.8 74.3C177.3 75.2 176.4 74.6 175.7 74.9C175 75.2 175.4 74.8 175.8 75.7C176.2 76.6 176.2 75.8 176.9 75.5C177.6 75.2 177.2 75.4 177.3 75.7L178 77.3C178.1 77.8 178.1 78 177 78.4L172.6 79.4C171.4 79.6 171.2 79.6 171.3 78.2C171.341 76.3473 171.576 74.5041 172 72.7C172.8 69.8 173.6 72.6 176.1 71.2C176.5 71 176.6 70.8 175.7 69.7L171.1 64.3C169.552 62.4078 168.148 60.4021 166.9 58.3C166 56.9 165.9 56.5 166.1 55.6C166.215 54.511 166.45 53.4379 166.8 52.4C167.1 51.6 167.4 51.6 167 51.4L164.9 50.8C164.3 50.6 164.1 50.7 164.1 51.6C164.1 52.5 164.8 57.3 161.9 51.9C161 50.3 160.2 48.5 159.6 47.6C159 46.7 158.4 46.8 158.1 46.8C157.8 46.8 157.8 46.8 156.9 49C155.331 52.8564 153.562 56.6282 151.6 60.3C149 64.8 145.6 69.3 144.2 71.8C142.8 74.3 143.4 74.8 143.7 75.1C144 75.4 144.1 75.4 144.7 75.1C145.3 74.8 146.3 73.9 147 74.6C147.7 75.3 148.2 77.4 148.4 78.5C148.6 79.6 148.4 79.6 146.8 79.8C142.47 80.1162 138.163 80.6838 133.9 81.5C130.2 82.3 126.7 83.6 122.6 83.4C118.5 83.2 117 81.8 119.3 78.7C120.4 77.2 125.6 75.1 127.6 73.1C132.1 68.6 134.3 65.5 135.8 59.5C137.3 53.5 137.4 46.7 136 41.4C134.6 36.1 129.2 28.3 124.4 24.1C119.6 19.9 109.8 15.5 101.7 13.9C96.365 12.8123 90.9429 12.2099 85.4996 12.1C78.6973 11.8794 71.8881 12.0129 65.0996 12.5C57.7996 13.3 46.4996 15.8 40.7996 18.1C38.5645 18.9393 36.473 20.1199 34.5996 21.6C33.2996 22.7 32.7996 23.8 32.9996 25C33.5996 28.1 37.5996 31.2 40.4996 33.1C45.0996 36.1 48.6996 36.7 54.3996 35.6C65.6996 33.5 65.1996 30 63.9996 47.2C63.5996 54.5 62.8996 65.9 62.3996 71.9C61.8996 77.9 61.6996 78.3 60.8996 78.9C60.0996 79.5 54.3996 81.5 51.2996 84C48.1996 86.5 46.1996 93.2 45.7996 97.9C44.9996 107.6 49.1996 106.9 56.4996 106.5C58.3996 106.4 59.5996 106.4 60.2996 107.5C60.9996 108.6 60.8996 110.6 60.3996 120.1C59.8996 129.6 58.9996 146.4 58.7996 155.6C58.5996 164.8 58.9996 166.1 59.5996 167.2C60.3934 168.283 60.8774 169.562 60.9996 170.9C61.2996 176.5 56.9996 187 60.3996 189.8C62.1996 191.3 66.2996 190.6 68.2996 189.2C69.6361 188.178 70.8153 186.965 71.7996 185.6C75.062 181.708 78.8677 178.307 83.0996 175.5C87.8996 172.5 98.0996 168.1 103.7 165.5C111.1 162 112.4 161.1 117.8 155.2C119.8 153 121.6 150.9 123.3 149.4V149.4ZM244.6 98.2L246 98.9L247.6 100.1L249.2 101.7C249.744 102.235 250.215 102.841 250.6 103.5C251.09 104.128 251.525 104.797 251.9 105.5C252.273 106.18 252.607 106.881 252.9 107.6C253.222 108.267 253.458 108.973 253.6 109.7C253.801 110.324 253.968 110.958 254.1 111.6L254.4 113.3C254.4 113.8 254.5 114.4 254.5 115C254.5 115.6 254.4 117.3 254.4 118.6V119.1C254.4 119.9 254.3 120.7 254.3 121.5C254.22 122.398 254.186 123.299 254.2 124.2C254.118 125.031 254.085 125.865 254.1 126.7C254 127.396 254 128.104 254.1 128.8C254.079 129.269 254.113 129.739 254.2 130.2L254.5 131C254.575 131.206 254.715 131.382 254.9 131.5L255.4 131.8L256.3 132H257.3L258.4 131.8L259.8 131.2L261.5 130.4L263.4 129.3L265.3 127.9L267 126.4C267.463 125.892 267.897 125.357 268.3 124.8C269.082 123.45 269.687 122.005 270.1 120.5C270.405 119.592 270.606 118.653 270.7 117.7C270.9 116.6 271.1 115.5 271.2 114.4L271.5 111C271.6 109.8 271.6 108.7 271.7 107.6C271.8 106.5 271.7 105.5 271.6 104.5C271.562 103.329 271.462 102.16 271.3 101C271.203 100.504 271.136 100.004 271.1 99.5C271 98.7 271.1 98.3 271.6 98C272.1 97.7 272.3 97.7 273 97.7H276.8C278.4 97.8 278.4 98 278.5 99.5C278.6 100.5 278.7 102.1 278.7 104.1C278.7 106.1 278.7 106.3 278.6 107.6C278.5 108.9 278.5 110.3 278.4 111.7C278.283 112.663 278.217 113.631 278.2 114.6C278 116.7 277.8 118.9 277.8 120.8C277.8 122.7 277.6 123.6 277.6 124.8V128.1C277.609 129.003 277.676 129.905 277.8 130.8C277.801 131.609 277.902 132.415 278.1 133.2C278.4 134.2 278.9 135.3 279.2 136.1C279.353 136.356 279.487 136.624 279.6 136.9C280.1 138.3 279.8 138.4 279 138.9L278.2 139.4L277.2 140L275.9 141.1L275.4 141.6C275.288 141.755 275.135 141.875 274.958 141.946C274.781 142.017 274.587 142.036 274.4 142C274 142 273.7 141.8 273.4 141.3C273.069 140.873 272.8 140.402 272.6 139.9L271.7 137.9L270.8 135.8C270.566 135.186 270.299 134.585 270 134C269.9 133.7 270.1 133.7 270 133.7C269.9 133.7 270.1 133.8 269.9 133.8L268.5 134.9L267.2 135.9C266.548 136.465 265.845 136.967 265.1 137.4L264.5 137.8L264.3 138C263.652 138.486 262.947 138.889 262.2 139.2L260.2 139.9L258.3 140.3H256.3L254.5 140.1L252.8 139.6L251.3 138.9C250.794 138.625 250.324 138.289 249.9 137.9C249.451 137.552 249.048 137.149 248.7 136.7C248.355 136.264 248.053 135.795 247.8 135.3L247.2 133.7C247.074 133.007 247.007 132.304 247 131.6V129C247 127.9 247.1 126.6 247.2 125.3C247.3 124 247.3 122.5 247.4 121.2V120.7C247.5 118.2 247.6 115.9 247.6 113.7C247.6 111.5 247.5 111.4 247.4 110.4C247.3 109.4 247.1 108.3 246.9 107.5C246.638 106.245 246.2 105.033 245.6 103.9L244.1 100.5C243.8 99.8 243.5 99.3 243.6 98.9C243.7 98.5 244.1 98.1 244.7 98.2H244.6ZM214.2 109.7L215.4 109.5L216.2 109.3L217 108.9C217.348 108.653 217.652 108.348 217.9 108L218.9 106.6L219.5 105.5C220.1 104.6 220.6 103.7 221.3 102.8C221.782 102.157 222.317 101.555 222.9 101C223.483 100.44 224.119 99.9373 224.8 99.5C225.355 99.0914 225.96 98.7554 226.6 98.5C227.166 98.2117 227.773 98.0094 228.4 97.9L230.2 97.7H232.1L233.7 98C234.254 98.1392 234.791 98.3405 235.3 98.6C235.736 98.8073 236.14 99.0767 236.5 99.4C236.91 99.682 237.28 100.018 237.6 100.4C237.899 100.742 238.166 101.11 238.4 101.5C238.705 102.165 238.908 102.874 239 103.6C239.007 103.957 238.902 104.306 238.7 104.6C238.4 105 238 105 237.5 104.8L236.9 104.4L236.7 104.2L235.8 103.4L235.1 103.1L234.1 102.8H231.4L230.1 103.3C229.632 103.507 229.195 103.776 228.8 104.1L227.8 105.3C227.466 105.709 227.165 106.144 226.9 106.6C226.576 107.068 226.308 107.571 226.1 108.1L225.8 108.5C225.671 108.82 225.503 109.122 225.3 109.4L224.7 110.3L225.5 110.5C227.495 111.181 229.308 112.31 230.8 113.8C232.421 115.322 233.715 117.16 234.6 119.2C234.83 119.79 235.03 120.39 235.2 121C235.425 121.616 235.593 122.252 235.7 122.9C235.8 123.6 236 124.3 236.1 124.9C236.2 125.5 236.2 126.2 236.3 126.8C236.4 127.4 236.4 128 236.4 128.5C236.4 129 236.5 129.7 236.5 130.2L236.8 131.9L237.1 133.5C237.206 133.986 237.374 134.457 237.6 134.9C237.723 135.317 237.891 135.719 238.1 136.1C238.472 136.963 238.907 137.799 239.4 138.6C239.861 139.291 240.436 139.9 241.1 140.4L241.7 141C241.814 141.287 241.881 141.591 241.9 141.9C241.859 142.093 241.775 142.275 241.654 142.431C241.532 142.587 241.377 142.713 241.2 142.8H240.3L238.6 142.5C237.937 142.356 237.297 142.12 236.7 141.8L234.9 140.8C234.383 140.349 233.914 139.847 233.5 139.3C232.986 138.709 232.58 138.032 232.3 137.3C231.889 136.535 231.554 135.731 231.3 134.9L230.7 132.3C230.5 131.2 230.3 130.1 230.2 129.1C230.097 128.605 230.03 128.104 230 127.6C229.8 126.4 229.7 125.4 229.5 124.4L228.9 122.6C228.694 122.007 228.426 121.437 228.1 120.9C227.758 120.415 227.39 119.947 227 119.5C226.682 118.997 226.275 118.557 225.8 118.2L224.4 117L223 116.2L221.6 115.7L220.1 115.4H216.9C216.5 115.4 216.4 115.4 216.4 115.5H215.3C215.3 116 215.4 116.4 215.4 116.8L215.7 118.8C216.099 121.749 216.266 124.725 216.2 127.7V129.3C216.183 130.203 216.116 131.104 216 132C215.8 133 215.6 134 215.3 135.1C215.211 135.395 215.145 135.696 215.1 136C214.901 137.093 214.599 138.164 214.2 139.2L213.2 141.2L212.4 142.6C212 143.1 211.7 143.3 211.3 143.3C211.112 143.336 210.918 143.317 210.741 143.246C210.564 143.175 210.411 143.055 210.3 142.9L209.7 142.4L208.4 141.3L207.4 140.7L206.6 140.2C205.7 139.7 205.4 139.6 205.9 138.2L206.3 137.3C206.76 136.406 207.128 135.468 207.4 134.5C207.63 133.719 207.764 132.913 207.8 132.1C207.9 131.3 207.9 130.4 208 129.4V126.1C208 124.9 207.9 123.6 207.8 122.1C207.7 120.6 207.6 118 207.4 115.9C207.2 113.8 207.3 114 207.2 113C207.1 112 207 110 207 108.4C207 106.8 206.9 105.2 206.9 104.2C206.9 103.2 207 100.6 207 99.6V99.4C207.1 98 207.1 97.8 208.7 97.7H212.7C214.4 97.7 214.8 97.7 214.7 99.4C214.6 101.1 214.6 100.3 214.5 101C214.299 102.124 214.166 103.26 214.1 104.4C214.014 105.264 213.981 106.132 214 107C214 107.9 214.1 108.8 214.1 109.7H214.2ZM123.1 114.9C122.895 121.691 122.092 128.45 120.7 135.1C119.6 140.1 117.9 144.6 115.5 147.3C114.238 148.83 112.868 150.267 111.4 151.6C110.063 152.911 108.625 154.115 107.1 155.2C105.738 156.269 104.301 157.238 102.8 158.1L98.5996 160.2L93.6996 162.4L90.4996 163.8L86.2996 165.8L82.7996 167.6L79.5996 169.4L76.8996 171.3L74.4996 173.3L72.4996 175.5C71.8461 176.199 71.2756 176.97 70.7996 177.8C70.3191 178.435 69.8847 179.103 69.4996 179.8V179.8C69.3557 180.08 69.1885 180.348 68.9996 180.6C68.6687 181.274 68.2664 181.911 67.7996 182.5C67.5103 182.743 67.1676 182.914 66.7996 183C66.6169 183.079 66.4196 183.118 66.2207 183.114C66.0218 183.111 65.8259 183.065 65.6461 182.98C65.4663 182.894 65.3068 182.772 65.178 182.62C65.0493 182.469 64.9544 182.291 64.8996 182.1C64.8905 181.698 64.924 181.295 64.9996 180.9C65.0625 180.188 65.1965 179.485 65.3996 178.8L66.1996 176.7L66.7996 175.4C69.0996 169.7 70.7996 165.6 78.1996 161.1C82.0996 158.8 86.9996 157 91.8996 155.2L98.3996 152.8C102.084 151.329 105.524 149.306 108.6 146.8C111.3 144.6 113.5 142.2 114.3 139.9V139.7C114.8 138.6 115.7 136.3 114.5 135.2C114.255 135.067 113.969 135.031 113.7 135.1C113.207 135.133 112.744 135.346 112.4 135.7V135.7L110.4 137.1L109.8 137.6H109.6C108.983 138.156 108.272 138.597 107.5 138.9L105.8 139.5L103.7 140C101.427 140.372 99.0958 139.948 97.0996 138.8C95.0967 137.75 93.5878 135.954 92.8996 133.8C92.6127 132.318 92.5454 130.802 92.6996 129.3V129C92.6996 127.9 92.7996 126.6 92.7996 125.3C92.7996 124 92.9996 122.5 92.9996 121.1V120.6C93.0996 118.1 93.1996 115.9 93.1996 113.7C93.1583 112.595 93.0582 111.494 92.8996 110.4C92.8362 109.425 92.7026 108.456 92.4996 107.5C92.3415 106.821 92.1411 106.153 91.8996 105.5C91.6734 104.947 91.406 104.412 91.0996 103.9L90.4996 102.9L88.9996 100.3C88.8697 100.113 88.7842 99.8983 88.7495 99.6731C88.7149 99.4478 88.732 99.2176 88.7996 99C88.8065 98.8152 88.8772 98.6385 88.9996 98.5L89.3996 98.1C89.5414 97.9953 89.7045 97.923 89.8773 97.8885C90.0501 97.8539 90.2285 97.8578 90.3996 97.9C90.8953 98.0701 91.3661 98.3055 91.7996 98.6C92.9229 99.3911 93.9617 100.296 94.8996 101.3L96.2996 103.1L97.4996 105.2C97.8734 105.88 98.2073 106.581 98.4996 107.3C98.7778 107.984 99.0116 108.686 99.1996 109.4C99.3708 110.025 99.5044 110.659 99.5996 111.3C99.7955 111.845 99.8969 112.42 99.8996 113C99.9891 113.562 100.023 114.131 99.9996 114.7C99.9996 115.7 99.9996 116.9 99.8996 118.3V118.8C99.7996 119.6 99.7996 120.4 99.6996 121.2C99.7162 122.101 99.6828 123.003 99.5996 123.9C99.6157 124.303 99.5821 124.706 99.4996 125.1C99.2996 128 98.9996 132.8 100.8 133.5C101.967 133.793 103.199 133.687 104.3 133.2C105.877 132.514 107.384 131.677 108.8 130.7C109.473 130.291 110.109 129.822 110.7 129.3L112.3 127.8C112.763 127.291 113.197 126.757 113.6 126.2C113.992 125.6 114.327 124.963 114.6 124.3C114.941 123.527 115.209 122.723 115.4 121.9L116 119.1C116.32 116.779 116.521 114.442 116.6 112.1C116.75 109.402 116.75 106.698 116.6 104C116.533 102.827 116.399 101.658 116.2 100.5C116.2 99.9 116.1 99.4 116.1 99C116.023 98.7373 116.02 98.4586 116.09 98.1942C116.161 97.9298 116.302 97.6897 116.5 97.5C116.944 97.3227 117.424 97.2541 117.9 97.3H121.7C123.2 97.4 123.2 97.6 123.3 99V99.2C123.4 100.2 123.5 101.8 123.5 103.8C123.5 105.8 123.5 106 123.4 107.3C123.3 108.6 123.3 109.9 123.2 111.4C123.119 111.963 123.086 112.532 123.1 113.1C122.984 113.66 122.917 114.229 122.9 114.8L123.1 114.9ZM44.0996 24.8C44.0996 23.4 57.5996 20.6 59.5996 20.1C63.1917 19.2948 66.8329 18.7269 70.4996 18.4C75.453 17.9544 80.4295 17.8208 85.3996 18C121.5 19.5 147.9 52.4 113.4 77C103.7 83.9 91.1996 84.1 81.0996 91C78.9996 104.7 80.3996 128 80.0996 142.5C79.9996 146.1 79.7996 147.5 79.2996 148.6C78.7245 149.607 77.851 150.411 76.7996 150.9C70.6996 154.2 68.7996 156.2 66.6996 159.2C66.0996 160 65.1996 160.7 64.8996 159C64.0996 153.9 68.9996 98.8 68.8996 94.6C68.8996 94.6 62.7996 97.1 58.0996 98.8C56.1996 99.5 55.2996 99.3 54.9996 98.3C54.6996 97.3 54.7996 95.4 55.1996 93.4C55.5489 91.4513 56.2612 89.5856 57.2996 87.9C58.4202 86.6493 59.8269 85.6886 61.3996 85.1C64.4996 83.7 66.4996 82.7 69.0996 81.3C69.0996 81.3 69.3996 79.2 69.7996 70.4C70.1996 61.6 71.1996 44.8 71.4996 36.1C71.7996 27.4 71.6996 27.1 71.2996 26.9C70.8996 26.7 70.0996 26.7 68.3996 27L61.2996 28.2C58.9897 28.681 56.6517 29.015 54.2996 29.2C52.5154 29.4202 50.706 29.107 49.0996 28.3C46.9996 27.5 44.0996 25.8 44.0996 24.8V24.8ZM105 71.9C130.9 61.2 119.9 24.8 84.5996 25.6C83.2996 25.6 82.1996 26.4 82.0996 28.4C81.2996 37.5 80.9996 71 80.8996 77.4C80.8996 77.5 79.1996 82.6 105 71.9V71.9ZM391.4 135.8C374.6 155.8 362.4 154.8 345 135.7C336.2 126.1 327.1 111.1 327 94C326.9 64.7 344.8 24.6 368.6 18.6C383.6 14.8 397.9 31 404.4 50.7C404.5 51.2 403.6 51.1 403.3 51.1C403 51.1 398.7 51.2 398.6 50.9C398.093 49.6723 397.526 48.4708 396.9 47.3C389.3 31.7 383.7 26.8 372.4 28.8C354.3 32.1 342 72 341.8 92.6C341.7 118 353.6 139.8 369.8 139.8C382 139.8 390.1 126.7 395.9 111.6C396.719 109.347 397.387 107.042 397.9 104.7C398.3 102.5 398.7 100.5 399.1 98.9C399.5 97.3 402.9 98.3 404.7 98.3C406.5 98.3 406.2 98.3 406.2 99C405.991 102.569 405.49 106.114 404.7 109.6C401.6 120.2 397.1 129.2 391.4 135.8ZM412.3 104.4C412.289 102.898 412.356 101.396 412.5 99.9V99.7C412.6 98.5 412.6 98.3 413.8 98.3H417.8C419.2 98.3 419.5 98.3 419.4 99.6C419.3 100.9 419.3 100.5 419.2 101.1C419.1 101.7 418.9 103.3 418.8 104.6C418.749 105.499 418.749 106.401 418.8 107.3V110.3L420.1 110.1C421.191 109.934 422.296 109.867 423.4 109.9C424.735 110.02 426.047 110.322 427.3 110.8C428.619 111.335 429.863 112.041 431 112.9C432.219 113.798 433.327 114.839 434.3 116C435.158 116.953 435.867 118.033 436.4 119.2C437.359 121.234 437.871 123.451 437.9 125.7C437.889 127.921 437.482 130.122 436.7 132.2C435.721 134.701 434.298 137.005 432.5 139C430.612 140.944 428.224 142.328 425.6 143L423.3 143.4C422.503 143.5 421.696 143.5 420.9 143.4C420.127 143.437 419.354 143.37 418.6 143.2L416.4 142.7C415.758 142.449 415.152 142.112 414.6 141.7C414.054 141.241 413.582 140.701 413.2 140.1C412.782 139.529 412.477 138.884 412.3 138.2C412.008 137.529 411.806 136.823 411.7 136.1C411.502 135.349 411.401 134.576 411.4 133.8C411.314 132.97 411.281 132.135 411.3 131.3C411.3 130.3 411.3 129.3 411.4 128.3C411.5 127.3 411.5 126.1 411.6 124.9C411.621 124.097 411.688 123.296 411.8 122.5C411.9 121 412.1 119.5 412.1 117.9C412.1 116.3 412.2 115.5 412.3 114.4V104.5V104.4ZM419 115.3C418.779 116.011 418.711 116.761 418.8 117.5V119.2C418.7 120.2 418.6 121.4 418.5 122.6L418.2 125.6V126.7C418.033 127.558 417.933 128.427 417.9 129.3V131.7C418 132.4 418 133 418.1 133.6L418.4 135.4C418.506 135.886 418.674 136.357 418.9 136.8C419 136.9 419 137 419.1 137.2C419.2 137.4 419.9 138.9 420.5 139.1C422.026 139.299 423.574 138.982 424.9 138.2C426.752 137.245 428.386 135.917 429.7 134.3C430.624 132.886 431.395 131.377 432 129.8C432.523 128.464 432.761 127.033 432.7 125.6C432.694 124.227 432.423 122.869 431.9 121.6C431.303 120.252 430.454 119.03 429.4 118C428.719 117.269 427.946 116.63 427.1 116.1C426.451 115.669 425.744 115.332 425 115.1C423.915 114.875 422.804 114.807 421.7 114.9C420.814 114.832 419.924 114.969 419.1 115.3H419ZM450.2 122.7C450.3 124.298 450.3 125.902 450.2 127.5C450.162 129.107 450.028 130.709 449.8 132.3C449.634 133.889 449.333 135.462 448.9 137C448.7 138 448.4 138.9 448.2 139.6C447.938 140.237 447.602 140.841 447.2 141.4C447.141 141.568 447.033 141.715 446.891 141.821C446.748 141.928 446.577 141.99 446.4 142C446.2 142 446 141.9 445.7 141.6L445.2 141.2L443.8 140L442.8 139.4L442 138.9H441.9C441.3 138.5 441.1 138.4 441.5 137.3L441.8 136.5C442.277 135.567 442.678 134.597 443 133.6C443.182 132.809 443.315 132.007 443.4 131.2C443.485 130.269 443.518 129.334 443.5 128.4V125.1C443.5 123.9 443.5 122.6 443.4 121.1C443.3 119.6 443.1 117 443 114.8C442.883 113.871 442.817 112.936 442.8 112C442.7 110.5 442.6 109.2 442.5 107.9C442.4 106.6 442.4 105.4 442.4 104.4C442.4 103.4 442.6 100.8 442.6 99.9V99.7C442.7 98.5 442.7 98.3 444 98.3H448C448.411 98.2404 448.83 98.3103 449.2 98.5C449.5 98.7 449.6 99 449.5 99.6C449.469 100.104 449.403 100.606 449.3 101.1C449.137 102.26 449.037 103.429 449 104.6C448.9 105.7 448.9 106.7 448.9 107.8C448.9 108.9 449 110.1 449.1 111.2C449.2 112.3 449.5 115.7 449.8 118.1V118.5C449.9 119.9 450.1 121.3 450.2 122.8V122.7ZM456.5 140.4C456.31 138.907 456.21 137.405 456.2 135.9V126C456.2 124.9 456.2 123.7 456.1 122.5C456 121.3 455.8 119.4 455.7 118C455.579 117.172 455.513 116.337 455.5 115.5C455.3 114.3 455.3 113.2 455.2 112.1C455.1 111 455.1 110.1 455.1 109.2C455.1 108.3 455.2 107.4 455.2 106.6C455.275 105.857 455.409 105.122 455.6 104.4C455.74 103.652 455.941 102.916 456.2 102.2C456.444 101.503 456.817 100.859 457.3 100.3C457.718 99.696 458.224 99.1569 458.8 98.7C459.459 98.2877 460.164 97.9522 460.9 97.7L463.3 97.2L465.9 97H468.5L471.2 97.4C474.06 98.0698 476.707 99.4449 478.9 101.4C480.856 103.35 482.417 105.659 483.5 108.2C484.382 110.256 484.858 112.463 484.9 114.7C484.809 116.964 484.229 119.181 483.2 121.2C482.533 122.391 481.728 123.499 480.8 124.5C479.697 125.611 478.491 126.615 477.2 127.5C475.873 128.338 474.466 129.042 473 129.6C471.581 130.1 470.101 130.403 468.6 130.5C467.396 130.533 466.192 130.466 465 130.3L463.5 130.1C463.5 131.1 463.4 132.2 463.4 133.1C463.379 134.001 463.412 134.903 463.5 135.8C463.6 137.1 463.8 138.3 463.9 139.3C464.003 139.794 464.069 140.296 464.1 140.8C464.2 142.1 463.9 142.1 462.4 142.1H458C456.6 142 456.6 141.8 456.5 140.6V140.4V140.4ZM462.8 121.2L463.7 125C464.468 125.274 465.287 125.376 466.1 125.3C467.533 125.372 468.971 125.338 470.4 125.2H470.9C473.627 124.657 476.092 123.213 477.9 121.1C478.681 120.181 479.269 119.114 479.63 117.963C479.991 116.812 480.116 115.601 480 114.4V114C479.257 109.95 477.094 106.298 473.9 103.7C472.489 102.514 470.837 101.649 469.058 101.165C467.279 100.682 465.417 100.591 463.6 100.9C462.8 101 461.6 103.6 461.4 104.5C461.219 105.088 461.085 105.69 461 106.3C460.878 106.96 460.812 107.629 460.8 108.3V110.6C460.827 111.474 460.927 112.343 461.1 113.2V114.3C461.2 114.8 462 118.3 462.7 121.2H462.8ZM195.5 136C191.7 139.6 188.7 141.3 185.6 141.2C182.5 141.1 179.5 139.4 175.7 136C173.053 133.639 170.94 130.741 169.5 127.5C168.29 124.559 167.876 121.352 168.3 118.2C169.174 113.182 171.307 108.469 174.5 104.5C177.9 100.3 182 97.4 185.6 96.6C187.107 96.3552 188.649 96.4243 190.129 96.8029C191.609 97.1814 192.995 97.8613 194.2 98.8C197.188 101.203 199.555 104.29 201.1 107.8V107.8C201.231 108.08 201.272 108.393 201.219 108.697C201.165 109.002 201.019 109.282 200.8 109.5C200.61 109.721 200.37 109.892 200.1 110L199.3 110.2C198.905 110.251 198.503 110.184 198.147 110.006C197.79 109.827 197.495 109.547 197.3 109.2V109.2C196.204 107.153 194.786 105.296 193.1 103.7V103.7C192.384 103.021 191.533 102.5 190.603 102.173C189.672 101.845 188.683 101.718 187.7 101.8C185.2 102.2 182.7 104.2 180.6 107.1C178.239 110.501 176.699 114.403 176.1 118.5C175.901 119.488 175.801 120.493 175.8 121.5C175.724 124.696 176.631 127.837 178.4 130.5C179.11 131.631 180.045 132.604 181.145 133.361C182.246 134.118 183.489 134.641 184.8 134.9H186.3C188.525 134.8 190.662 133.994 192.4 132.6C194.513 130.856 196.219 128.672 197.4 126.2L197.7 125.6C198.3 124.1 199.2 122 200.7 122.4H200.8C201.5 122.7 201.7 123.5 201.6 124.4C201.564 125.075 201.463 125.744 201.3 126.4C201.212 126.627 201.145 126.861 201.1 127.1C200.462 128.808 199.658 130.449 198.7 132C197.826 133.447 196.748 134.76 195.5 135.9V136ZM308.3 97.8C308.3 99.7 308.3 100.6 307 101C306.294 101.122 305.569 101.053 304.9 100.8C304.191 100.594 303.562 100.175 303.1 99.6C302.458 98.9169 302.07 98.0346 302 97.1C301.91 96.057 302.012 95.0064 302.3 94C302.74 92.5762 303.454 91.2516 304.4 90.1C305.342 89.0585 306.503 88.2389 307.8 87.7C309.215 87.1893 310.697 86.8862 312.2 86.8C313.943 86.7046 315.691 86.8391 317.4 87.2C318.079 87.2824 318.729 87.5221 319.3 87.9C319.524 88.044 319.698 88.2535 319.8 88.5C319.875 88.8023 319.84 89.1217 319.7 89.4C319.51 89.6208 319.27 89.7923 319 89.9C318.382 90.2227 317.696 90.394 317 90.4L314.8 90.7C313.626 90.9299 312.485 91.2991 311.4 91.8C310.65 92.0901 309.969 92.5328 309.4 93.1C308.912 93.7793 308.603 94.5701 308.5 95.4C308.337 96.1891 308.27 96.9949 308.3 97.8V97.8ZM156.9 136C153.2 139.6 150.2 141.3 147.1 141.2C144 141.1 141 139.4 137.2 136C134.493 133.694 132.369 130.782 131 127.5C129.692 124.586 129.274 121.351 129.8 118.2C130.588 113.156 132.731 108.421 136 104.5C139.3 100.3 143.5 97.4 147.1 96.6C148.607 96.3613 150.148 96.4333 151.627 96.8116C153.106 97.1899 154.492 97.8665 155.7 98.8C158.63 101.235 160.957 104.316 162.5 107.8V107.8C162.644 108.07 162.702 108.377 162.666 108.681C162.63 108.985 162.502 109.271 162.3 109.5L161.6 110L160.8 110.2C160.391 110.246 159.978 110.177 159.607 110C159.235 109.823 158.921 109.546 158.7 109.2V109.2C157.604 107.153 156.186 105.296 154.5 103.7V103.7C153.792 103.01 152.942 102.482 152.009 102.154C151.077 101.826 150.084 101.705 149.1 101.8C146.6 102.2 144.1 104.2 142 107.1C139.721 110.544 138.188 114.428 137.5 118.5C137.301 119.488 137.201 120.493 137.2 121.5C137.173 124.689 138.076 127.817 139.8 130.5C140.521 131.642 141.471 132.622 142.59 133.379C143.708 134.136 144.971 134.654 146.3 134.9H147.7C149.928 134.814 152.069 134.007 153.8 132.6C155.942 130.886 157.655 128.694 158.8 126.2L159.1 125.6C159.7 124.1 160.6 122 162.1 122.4H162.3C162.9 122.7 163.1 123.5 163.1 124.4C163.034 125.078 162.9 125.749 162.7 126.4C162.707 126.648 162.637 126.893 162.5 127.1C161.945 128.842 161.136 130.494 160.1 132C159.226 133.447 158.148 134.76 156.9 135.9V136ZM285.5 97.9C285.995 98.0701 286.466 98.3055 286.9 98.6L288.5 99.8L290.1 101.3L291.5 103.1C291.969 103.777 292.403 104.478 292.8 105.2C293.173 105.88 293.507 106.581 293.8 107.3C294.078 107.984 294.312 108.686 294.5 109.4C294.713 110.02 294.88 110.655 295 111.3L295.3 113C295.3 113.5 295.4 114 295.4 114.7C295.4 115.4 295.3 116.9 295.2 118.3V118.8C295.2 119.6 295.1 120.4 295.1 121.2C295.016 122.097 294.983 122.999 295 123.9C294.918 124.697 294.885 125.499 294.9 126.3C294.8 126.996 294.8 127.704 294.9 128.4C294.875 128.869 294.909 129.339 295 129.8L295.3 130.7L295.7 131.2L296.2 131.5H297.1C297.431 131.549 297.768 131.549 298.1 131.5L299.2 131.2L300.6 130.7L302.3 129.8L304.2 128.7L306.1 127.3C306.698 126.914 307.237 126.442 307.7 125.9V125.9C308.196 125.358 308.663 124.791 309.1 124.2C309.492 123.6 309.827 122.963 310.1 122.3C310.426 121.555 310.694 120.786 310.9 120C311.215 119.061 311.416 118.087 311.5 117.1C311.723 116.043 311.89 114.975 312 113.9L312.3 110.5C312.4 109.3 312.4 108.2 312.5 107.1C312.6 106 312.5 104.9 312.4 103.9C312.362 102.729 312.262 101.56 312.1 100.4C311.997 99.9055 311.93 99.4042 311.9 98.9C311.8 98.2 311.9 97.7 312.4 97.4C312.839 97.2052 313.323 97.136 313.8 97.2H317.6C319.2 97.3 319.2 97.5 319.3 98.9V99.1C319.4 100.1 319.5 101.7 319.5 103.7C319.5 105.7 319.4 105.9 319.4 107.2C319.4 108.5 319.2 109.8 319.2 111.3C319.083 112.229 319.017 113.164 319 114.1C318.8 116.3 318.6 118.5 318.5 120.4C318.4 122.3 318.4 123.1 318.4 124.3V127.6C318.4 128.6 318.5 129.5 318.5 130.4C318.576 131.176 318.709 131.944 318.9 132.7C319.216 133.685 319.583 134.653 320 135.6L320.4 136.5C320.9 137.8 320.6 138 319.8 138.5H319.7L319 138.9L318 139.6C317.546 139.942 317.112 140.309 316.7 140.7C316.581 140.885 316.406 141.025 316.2 141.1C316.093 141.265 315.944 141.399 315.768 141.486C315.592 141.574 315.396 141.614 315.2 141.6C314.8 141.6 314.5 141.4 314.2 140.9C313.89 140.459 313.622 139.99 313.4 139.5L312.4 137.4C312.176 136.717 311.909 136.049 311.6 135.4L310.8 133.5C310.7 133.3 310.9 133.2 310.8 133.2C310.7 133.2 310.9 133.3 310.7 133.4L309.3 134.5L308 135.5L305.9 136.9C305.8 137.1 305.6 137.2 305.3 137.4H305.1C304.468 138.018 303.763 138.555 303 139L301 139.6L299.1 140.1H297.1L295.3 139.8L293.6 139.4L292.1 138.7L290.7 137.7L289.5 136.5L288.6 135.1L288 133.4C287.873 132.741 287.806 132.071 287.8 131.4V128.6C287.8 127.5 287.9 126.2 288 124.9C288.1 123.6 288.1 122.1 288.2 120.7V120.2C288.3 117.7 288.4 115.5 288.4 113.3C288.4 111.1 288.3 111 288.2 109.9C288.1 108.8 287.9 107.9 287.7 107.1C287.437 105.813 287 104.568 286.4 103.4L284.9 100.1C284.539 99.6094 284.362 99.0077 284.4 98.4C284.5 97.9 284.9 97.7 285.5 97.8V97.9ZM447.8 85.9C447.9 85.4 449.1 84.9 449 84.4C448.9 83.9 447.8 82.7 448 80.3C448.196 79.4131 448.463 78.5436 448.8 77.7C448.9 77.1 448.6 76.9 448.7 75.5C448.8 74.1 448.8 74.6 449.2 74.6L450.7 74.9L451.7 75.2C451.975 75.4005 452.184 75.6792 452.3 76C452.9 79.2 451.5 77.8 452.6 80.4C453.7 83 452.4 83.5 451.7 86.2L447.8 85.9ZM456.3 86.4C456.4 85.2 454.9 84.4 454.6 83.1V80.2C455 78.6 455.1 79.6 454.9 77.6V76.6C454.9 76.4 454.9 76.4 455.1 76.4C455.3 76.4 460 77 460.5 77.5L460.8 79.4C460.8 79.9 458.7 80.5 459.4 81.4C460.1 82.3 461.5 80.7 461.8 80.4C462.1 80.1 461.7 80.3 462.4 80.8C463.1 81.3 464.4 81.5 464 82C463.6 82.5 464.7 83.5 464.2 84C463.999 84.294 463.764 84.5626 463.5 84.8C462.9 85.2 461.4 84.7 461.6 86.9L456.2 86.4H456.3ZM465.7 87C466.04 86.6071 466.25 86.1177 466.3 85.6C466.3 85 465.3 85.1 465.5 82.9C465.6 82.5 466.9 81.9 467.1 81.8C467.3 81.7 468.1 84.8 469.5 84.2C470.9 83.6 469.1 81.8 469 81.7C469.65 81.466 470.257 81.1283 470.8 80.7C472.3 82.8 474.1 81.6 472.1 79.7C473.7 78.3 472.8 75.9 472.8 75.9C472.8 75.9 473.1 74.9 473.5 75C473.9 75.1 474.5 75.5 474.3 76.2C474.1 76.9 475.2 76.6 474.5 80.4C473.8 84.2 473.7 83.4 471.8 85.9L470.9 87.3L465.7 87V87Z" fill="white"/>
</svg>
